<svg xmlns="http://www.w3.org/2000/svg" width="35.1" height="26.325" viewBox="0 0 35.1 26.325">
  <path id="envelope-solid" d="M34.435,72.693a.413.413,0,0,1,.665.322V87.034a3.291,3.291,0,0,1-3.291,3.291H3.291A3.291,3.291,0,0,1,0,87.034V73.022A.41.41,0,0,1,.665,72.7c1.536,1.193,3.572,2.708,10.564,7.788,1.447,1.056,3.887,3.277,6.321,3.263,2.447.021,4.936-2.249,6.328-3.263C30.87,75.408,32.9,73.886,34.435,72.693ZM17.55,81.55c1.59.027,3.88-2,5.032-2.838,9.1-6.6,9.79-7.178,11.887-8.823a1.641,1.641,0,0,0,.631-1.3v-1.3A3.291,3.291,0,0,0,31.809,64H3.291A3.291,3.291,0,0,0,0,67.291v1.3a1.651,1.651,0,0,0,.631,1.3c2.1,1.638,2.79,2.221,11.887,8.823C13.67,79.548,15.96,81.577,17.55,81.55Z" transform="translate(0 -64)" fill="#1e71e2"/>
</svg>
