<svg id="_483947" data-name="483947" xmlns="http://www.w3.org/2000/svg" width="22.193" height="22.193" viewBox="0 0 22.193 22.193">
  <g id="Group_333" data-name="Group 333">
    <path id="Path_3298" data-name="Path 3298" d="M20.413,14.567a12.6,12.6,0,0,1-3.957-.63,1.809,1.809,0,0,0-1.759.371l-2.5,1.884A13.791,13.791,0,0,1,6,9.993l1.828-2.43A1.794,1.794,0,0,0,8.27,5.745a12.62,12.62,0,0,1-.633-3.964A1.783,1.783,0,0,0,5.857,0H1.781A1.783,1.783,0,0,0,0,1.781,20.436,20.436,0,0,0,20.413,22.193a1.783,1.783,0,0,0,1.781-1.781V16.348A1.783,1.783,0,0,0,20.413,14.567Z" fill="#627b98"/>
  </g>
</svg>
