<svg xmlns="http://www.w3.org/2000/svg" width="71.707" height="71.707" viewBox="0 0 71.707 71.707">
  <g id="_2977921" data-name="2977921" transform="translate(0)">
    <path id="Path_3284" data-name="Path 3284" d="M178.416,145.607l9.9-29.71a2.1,2.1,0,0,0-3.986-1.329l-9.9,29.71a2.1,2.1,0,1,0,3.986,1.329Z" transform="translate(-149.907 -97.287)" fill="#1e71e2"/>
    <path id="Path_3285" data-name="Path 3285" d="M270.835,201.808a6.3,6.3,0,1,0-6.3-6.3A6.31,6.31,0,0,0,270.835,201.808Zm0-8.4a2.1,2.1,0,1,1-2.1,2.1A2.1,2.1,0,0,1,270.835,193.4Z" transform="translate(-227.484 -162.704)" fill="#1e71e2"/>
    <path id="Path_3286" data-name="Path 3286" d="M101.129,189.2a6.3,6.3,0,1,0,6.3,6.3A6.31,6.31,0,0,0,101.129,189.2Zm0,8.4a2.1,2.1,0,1,1,2.1-2.1A2.1,2.1,0,0,1,101.129,197.606Z" transform="translate(-81.546 -162.704)" fill="#1e71e2"/>
    <path id="Path_3287" data-name="Path 3287" d="M71.287,26.05l-7.326-9.768.286-2a2.1,2.1,0,0,0-.594-1.783L59.2,8.043l4.456-4.457A2.1,2.1,0,1,0,60.682.615L56.226,5.072,51.769.615A2.1,2.1,0,0,0,49.987.021L29.19,2.992A2.1,2.1,0,0,0,28,3.586L2.253,29.335a7.712,7.712,0,0,0,0,10.894L24.04,62.016a7.684,7.684,0,0,0,1.45,1.137V64a7.712,7.712,0,0,0,7.7,7.7H64a7.712,7.712,0,0,0,7.7-7.7V27.311a2.1,2.1,0,0,0-.42-1.26ZM5.224,37.258a3.505,3.505,0,0,1,0-4.952L30.477,7.053,49.541,4.329l3.714,3.714-2.971,2.971L48.8,9.528A2.1,2.1,0,0,0,45.827,12.5l5.942,5.942a2.1,2.1,0,0,0,2.971-2.971l-1.486-1.486,2.971-2.971,3.714,3.714L57.216,33.792,31.963,59.045a3.5,3.5,0,0,1-4.952,0ZM67.506,64a3.505,3.505,0,0,1-3.5,3.5H33.193A3.505,3.505,0,0,1,29.7,64.263a7.673,7.673,0,0,0,5.231-2.247L60.682,36.267a2.1,2.1,0,0,0,.594-1.188l1.845-12.914,4.385,5.846Z" transform="translate(0 0)" fill="#1e71e2"/>
  </g>
</svg>
