<svg id="_483947" data-name="483947" xmlns="http://www.w3.org/2000/svg" width="30.379" height="30.379" viewBox="0 0 30.379 30.379">
  <g id="Group_333" data-name="Group 333">
    <path id="Path_3298" data-name="Path 3298" d="M27.942,19.94a17.248,17.248,0,0,1-5.417-.863,2.476,2.476,0,0,0-2.408.508L16.7,22.164a18.877,18.877,0,0,1-8.487-8.486l2.5-3.327a2.455,2.455,0,0,0,.6-2.488,17.275,17.275,0,0,1-.866-5.426A2.44,2.44,0,0,0,8.017,0H2.438A2.44,2.44,0,0,0,0,2.438,27.973,27.973,0,0,0,27.942,30.379a2.44,2.44,0,0,0,2.438-2.438V22.378A2.441,2.441,0,0,0,27.942,19.94Z" fill="#1e71e2"/>
  </g>
</svg>
