<svg xmlns="http://www.w3.org/2000/svg" width="55.394" height="66.927" viewBox="0 0 55.394 66.927">
  <path id="_102665" data-name="102665" d="M73.366,64.132,69.294,18.778A2.4,2.4,0,0,0,66.9,16.59H58.5V12.8a12.8,12.8,0,1,0-25.6,0V16.59H24.5A2.4,2.4,0,0,0,22.1,18.778L18.015,64.31a2.4,2.4,0,0,0,2.393,2.617H71a2.4,2.4,0,0,0,2.4-2.4A2.448,2.448,0,0,0,73.366,64.132ZM37.7,12.8a8,8,0,1,1,15.994,0V16.59H37.7Zm-14.67,49.32,3.657-40.728H32.9v4.3a2.4,2.4,0,1,0,4.8,0v-4.3H53.7v4.3a2.4,2.4,0,1,0,4.8,0v-4.3h6.2l3.657,40.728H23.035Z" transform="translate(-18.005)" fill="#1e71e2"/>
</svg>
