<svg id="_686308" data-name="686308" xmlns="http://www.w3.org/2000/svg" width="63.024" height="71.707" viewBox="0 0 63.024 71.707">
  <g id="Group_305" data-name="Group 305" transform="translate(0 12.745)">
    <g id="Group_304" data-name="Group 304">
      <path id="Path_3280" data-name="Path 3280" d="M92.415,122.652a6.3,6.3,0,0,0-4.693-10.5H75.489A40.735,40.735,0,0,0,77.218,101.5V99.4a8.413,8.413,0,0,0-8.4-8.4h-2.1a2.1,2.1,0,0,0-2.038,1.591l-1.144,4.578c-1.6,6.412-6.695,13.486-11.963,14.771a6.311,6.311,0,0,0-5.863-3.994H33.1a2.1,2.1,0,0,0-2.1,2.1v37.814a2.1,2.1,0,0,0,2.1,2.1h12.6a6.309,6.309,0,0,0,5.689-3.592l7.218,2.406a23.058,23.058,0,0,0,7.308,1.186h17.6a6.3,6.3,0,0,0,5.86-8.624,6.3,6.3,0,0,0,3.035-10.283,6.29,6.29,0,0,0,0-8.4ZM47.806,143.66a2.1,2.1,0,0,1-2.1,2.1H35.2V112.148h10.5a2.1,2.1,0,0,1,2.1,2.1ZM83.52,124.753h4.2a2.1,2.1,0,1,1,0,4.2h-4.2a2.1,2.1,0,1,0,0,4.2h4.2a2.1,2.1,0,1,1,0,4.2h-4.2a2.1,2.1,0,0,0,0,4.2,2.1,2.1,0,0,1,0,4.2h-17.6a18.867,18.867,0,0,1-5.98-.971l-7.933-2.644v-26c3.3-.626,6.521-2.713,9.433-6.129a30.653,30.653,0,0,0,6.167-11.833l.746-2.987h.461a4.207,4.207,0,0,1,4.2,4.2v2.1c0,2.821-.882,8.231-2.011,10.645H66.714a2.1,2.1,0,1,0,0,4.2H87.722a2.1,2.1,0,1,1,0,4.2h-4.2a2.1,2.1,0,0,0,0,4.2Z" transform="translate(-31 -91)" fill="#1e71e2"/>
    </g>
  </g>
  <g id="Group_307" data-name="Group 307" transform="translate(8.64 59.443)">
    <g id="Group_306" data-name="Group 306" transform="translate(0 0)">
      <ellipse id="Ellipse_1" data-name="Ellipse 1" cx="2.5" cy="1.5" rx="2.5" ry="1.5" transform="translate(-0.23 0.334)" fill="#1e71e2"/>
    </g>
  </g>
  <g id="Group_309" data-name="Group 309" transform="translate(37.814)">
    <g id="Group_308" data-name="Group 308">
      <path id="Path_3281" data-name="Path 3281" d="M303.1,0A2.1,2.1,0,0,0,301,2.1V6.442a2.1,2.1,0,1,0,4.2,0V2.1A2.1,2.1,0,0,0,303.1,0Z" transform="translate(-301)" fill="#1e71e2"/>
    </g>
  </g>
  <g id="Group_311" data-name="Group 311" transform="translate(24.445 5.678)">
    <g id="Group_310" data-name="Group 310">
      <path id="Path_3282" data-name="Path 3282" d="M212.1,44.128l-2.971-2.971a2.1,2.1,0,1,0-2.971,2.971l2.971,2.971a2.1,2.1,0,0,0,2.971-2.971Z" transform="translate(-205.54 -40.542)" fill="#1e71e2"/>
    </g>
  </g>
  <g id="Group_313" data-name="Group 313" transform="translate(48.213 5.678)">
    <g id="Group_312" data-name="Group 312">
      <path id="Path_3283" data-name="Path 3283" d="M381.8,41.157a2.1,2.1,0,0,0-2.971,0l-2.971,2.971a2.1,2.1,0,0,0,2.971,2.971l2.971-2.971A2.1,2.1,0,0,0,381.8,41.157Z" transform="translate(-375.246 -40.542)" fill="#1e71e2"/>
    </g>
  </g>
</svg>
