<svg xmlns="http://www.w3.org/2000/svg" width="66.927" height="66.927" viewBox="0 0 66.927 66.927">
  <g id="_860810" data-name="860810" transform="translate(0)">
    <g id="Group_318" data-name="Group 318" transform="translate(0 0)">
      <path id="Path_3290" data-name="Path 3290" d="M66.8,15.976,62.024,1.635A2.39,2.39,0,0,0,59.756,0H7.171A2.39,2.39,0,0,0,4.9,1.635L.122,15.976A2.436,2.436,0,0,0,0,16.667v2.455A11.9,11.9,0,0,0,4.78,28.63V59.756a7.171,7.171,0,0,0,7.171,7.171H54.976a7.171,7.171,0,0,0,7.171-7.171V28.63a11.9,11.9,0,0,0,4.78-9.508V16.667A2.43,2.43,0,0,0,66.8,15.976ZM50.2,4.78h7.838l3.189,9.561H50.2Zm-14.341,0h9.561v9.561H35.854Zm-14.341,0h9.561v9.561H21.512Zm-12.618,0h7.838v9.561H5.705Zm29.35,57.366H28.683V43.024h9.561V62.146Zm19.122-2.39a2.39,2.39,0,0,1-2.39,2.39H43.024V40.634a2.39,2.39,0,0,0-2.39-2.39H26.293a2.39,2.39,0,0,0-2.39,2.39V62.146H11.951a2.39,2.39,0,0,1-2.39-2.39V30.834a11.815,11.815,0,0,0,9.561-2.194,12.114,12.114,0,0,0,14.341,0,12.114,12.114,0,0,0,14.341,0,11.815,11.815,0,0,0,9.561,2.194V59.756Zm-2.39-33.464A7.063,7.063,0,0,1,49.6,23.812a2.39,2.39,0,0,0-3.6,0,7.211,7.211,0,0,1-10.742,0,2.471,2.471,0,0,0-3.494-.106q-.055.051-.106.106a7.211,7.211,0,0,1-10.742,0,2.471,2.471,0,0,0-3.494-.106q-.055.051-.106.106a7.063,7.063,0,0,1-5.371,2.481A7.171,7.171,0,0,1,4.78,19.122H62.146A7.171,7.171,0,0,1,54.976,26.293Z" transform="translate(0 0)" fill="#1e71e2"/>
    </g>
  </g>
</svg>
