<svg xmlns="http://www.w3.org/2000/svg" width="71.711" height="67.222" viewBox="0 0 71.711 67.222">
  <g id="_732136" data-name="732136" transform="translate(0)">
    <g id="Group_320" data-name="Group 320" transform="translate(0.004 20.164)">
      <g id="Group_319" data-name="Group 319">
        <path id="Path_3291" data-name="Path 3291" d="M69.49,160H2.265a2.241,2.241,0,0,0,0,4.482H69.49a2.241,2.241,0,0,0,0-4.482Z" transform="translate(-0.024 -159.998)" fill="#1e71e2"/>
      </g>
    </g>
    <g id="Group_322" data-name="Group 322" transform="translate(15.689 0.03)">
      <g id="Group_321" data-name="Group 321">
        <path id="Path_3292" data-name="Path 3292" d="M151.792,37.125,133.865,16.957a2.313,2.313,0,0,0-3.352,0L112.586,37.125a2.241,2.241,0,1,0,3.352,2.976l16.251-18.285L148.439,40.1a2.241,2.241,0,0,0,3.352-2.976Z" transform="translate(-112.02 -16.238)" fill="#1e71e2"/>
      </g>
    </g>
    <g id="Group_324" data-name="Group 324" transform="translate(0 0)">
      <g id="Group_323" data-name="Group 323">
        <path id="Path_3293" data-name="Path 3293" d="M71.151,36.956,55.465,19.029a2.229,2.229,0,0,0-1.4-.748L36.135,16.04a2.69,2.69,0,0,0-.5,0L13.225,18.276a2.234,2.234,0,0,0-1.676,1.04L.344,37.243A2.233,2.233,0,0,0,.483,39.82L34.1,82.4a2.243,2.243,0,0,0,3.518,0L71.227,39.82A2.24,2.24,0,0,0,71.151,36.956ZM35.857,77.39,4.978,38.278l9.788-15.659L35.83,20.512l16.829,2.106L66.557,38.5Z" transform="translate(0 -16.026)" fill="#1e71e2"/>
      </g>
    </g>
    <g id="Group_326" data-name="Group 326" transform="translate(15.688 20.166)">
      <g id="Group_325" data-name="Group 325">
        <path id="Path_3294" data-name="Path 3294" d="M134.25,203.961l-17.927-42.576a2.242,2.242,0,1,0-4.132,1.739L130.118,205.7a2.245,2.245,0,0,0,2.066,1.371,2.3,2.3,0,0,0,.869-.175A2.244,2.244,0,0,0,134.25,203.961Z" transform="translate(-112.015 -160.016)" fill="#1e71e2"/>
      </g>
    </g>
    <g id="Group_328" data-name="Group 328" transform="translate(33.615 20.161)">
      <g id="Group_327" data-name="Group 327">
        <path id="Path_3295" data-name="Path 3295" d="M261.053,160.157a2.237,2.237,0,0,0-2.936,1.2L240.191,203.93a2.24,2.24,0,0,0,1.2,2.936,2.282,2.282,0,0,0,.869.175,2.245,2.245,0,0,0,2.066-1.371l17.927-42.576A2.244,2.244,0,0,0,261.053,160.157Z" transform="translate(-240.015 -159.98)" fill="#1e71e2"/>
      </g>
    </g>
    <g id="Group_330" data-name="Group 330" transform="translate(11.21 2.235)">
      <g id="Group_329" data-name="Group 329">
        <path id="Path_3296" data-name="Path 3296" d="M88.936,51.613,84.454,33.686a2.238,2.238,0,1,0-4.343,1.085L84.593,52.7a2.238,2.238,0,1,0,4.343-1.085Z" transform="translate(-80.042 -31.986)" fill="#1e71e2"/>
      </g>
    </g>
    <g id="Group_332" data-name="Group 332" transform="translate(51.543 2.237)">
      <g id="Group_331" data-name="Group 331">
        <path id="Path_3297" data-name="Path 3297" d="M370.265,32a2.242,2.242,0,0,0-2.241,2.241V52.166a2.241,2.241,0,1,0,4.482,0V34.239A2.242,2.242,0,0,0,370.265,32Z" transform="translate(-368.024 -31.998)" fill="#1e71e2"/>
      </g>
    </g>
  </g>
</svg>
