<svg xmlns="http://www.w3.org/2000/svg" width="71.707" height="71.707" viewBox="0 0 71.707 71.707">
  <g id="_985698-2" data-name="985698-2" transform="translate(0)">
    <g id="Group_315" data-name="Group 315" transform="translate(0)">
      <g id="Group_314" data-name="Group 314">
        <path id="Path_3288" data-name="Path 3288" d="M61.206,10.5a35.854,35.854,0,0,0-50.7,50.7,35.854,35.854,0,0,0,50.7-50.7Zm-25.352,57A31.652,31.652,0,1,1,67.506,35.854,31.688,31.688,0,0,1,35.854,67.506Z" fill="#1e71e2"/>
      </g>
    </g>
    <g id="Group_317" data-name="Group 317" transform="translate(24.752 13.501)">
      <g id="Group_316" data-name="Group 316">
        <path id="Path_3289" data-name="Path 3289" d="M190.086,116.653h-4.5a4.65,4.65,0,1,1,0-9.3h9a2.1,2.1,0,0,0,0-4.2h-4.65V98.5a2.1,2.1,0,1,0-4.2,0v4.65h-.149a8.851,8.851,0,1,0,0,17.7h4.5a4.65,4.65,0,0,1,0,9.3h-9a2.1,2.1,0,1,0,0,4.2h4.65v4.65a2.1,2.1,0,0,0,4.2,0v-4.65h.149a8.851,8.851,0,0,0,0-17.7Z" transform="translate(-176.734 -96.401)" fill="#1e71e2"/>
      </g>
    </g>
  </g>
</svg>
